<?xml version="1.0" encoding="utf-8"?>
<svg xmlns="http://www.w3.org/2000/svg" xmlns:xlink="http://www.w3.org/1999/xlink" style="margin: auto; background: none; display: block; shape-rendering: auto;" width="200px" height="200px" viewBox="0 0 100 100" preserveAspectRatio="xMidYMid">
<g transform="translate(50 50)">
<g>
<animateTransform attributeName="transform" type="rotate" values="0;40" keyTimes="0;1" dur="0.2s" repeatCount="indefinite"></animateTransform><path d="M18.45941494197473 -4.5 L26.45941494197473 -4.5 L26.45941494197473 4.5 L18.45941494197473 4.5 A19 19 0 0 1 17.033276483116605 8.418283212728525 L17.033276483116605 8.418283212728525 L23.16163202806843 13.56058409022084 L17.376543540889575 20.45498407829164 L11.24818799593775 15.312683200799327 A19 19 0 0 1 7.637078654026553 17.397558151424928 L7.637078654026553 17.397558151424928 L9.026264075361995 25.27602017552259 L0.16299429825212686 26.838853774524964 L-1.2261911230833162 18.960391750427302 A19 19 0 0 1 -5.332593153957389 18.23632227874817 L-5.332593153957389 18.23632227874817 L-9.332593153957388 25.16452550902368 L-17.126821788017335 20.66452550902368 L-13.126821788017336 13.73632227874817 A19 19 0 0 1 -15.807085360033284 10.542108537698779 L-15.807085360033284 10.542108537698779 L-23.324626326320548 13.27826968430413 L-26.402807616251565 4.821036097230957 L-18.8852666499643 2.0848749506256055 A19 19 0 0 1 -18.8852666499643 -2.084874950625601 L-18.8852666499643 -2.084874950625601 L-26.402807616251568 -4.82103609723095 L-23.32462632632055 -13.278269684304123 L-15.807085360033286 -10.542108537698773 A19 19 0 0 1 -13.126821788017347 -13.736322278748164 L-13.126821788017347 -13.736322278748164 L-17.12682178801735 -20.66452550902367 L-9.332593153957404 -25.164525509023672 L-5.332593153957402 -18.236322278748165 A19 19 0 0 1 -1.2261911230833253 -18.960391750427302 L-1.2261911230833253 -18.960391750427302 L0.16299429825211398 -26.838853774524967 L9.026264075361984 -25.276020175522596 L7.637078654026545 -17.39755815142493 A19 19 0 0 1 11.248187995937744 -15.31268320079933 L11.248187995937744 -15.31268320079933 L17.376543540889568 -20.45498407829165 L23.16163202806842 -13.56058409022085 L17.033276483116598 -8.418283212728532 A19 19 0 0 1 18.45941494197473 -4.500000000000003 M0 -16A16 16 0 1 0 0 16 A16 16 0 1 0 0 -16" fill="#473d3e"></path></g></g>
<!-- [ldio] generated by https://loading.io/ --></svg>